<?xml version="1.0" standalone="no"?>
<!DOCTYPE svg PUBLIC "-//W3C//DTD SVG 20010904//EN"
 "http://www.w3.org/TR/2001/REC-SVG-20010904/DTD/svg10.dtd">
<svg version="1.0" xmlns="http://www.w3.org/2000/svg"
 width="800.000000pt" height="800.000000pt" viewBox="0 0 800.000000 800.000000"
 preserveAspectRatio="xMidYMid meet">

<g transform="translate(0.000000,800.000000) scale(0.100000,-0.100000)"
fill="#000000" stroke="none">
<path d="M3648 7490 c-955 -91 -1820 -546 -2435 -1280 -378 -450 -646 -1006
-762 -1578 -58 -282 -65 -368 -66 -722 0 -331 4 -390 46 -629 105 -604 377
-1195 768 -1666 621 -747 1503 -1211 2466 -1295 153 -13 467 -13 620 0 1249
109 2346 855 2909 1978 187 373 295 733 358 1192 18 129 18 701 0 830 -64 467
-172 823 -368 1212 -180 357 -401 657 -702 951 -140 137 -200 189 -357 306
-497 371 -1054 598 -1690 687 -137 19 -641 28 -787 14z m622 -511 c1050 -95
1988 -738 2466 -1689 174 -347 276 -702 314 -1092 14 -136 14 -445 0 -586 -61
-647 -331 -1272 -754 -1744 -283 -316 -570 -539 -931 -721 -345 -175 -710
-280 -1097 -317 -145 -14 -441 -14 -586 0 -1128 108 -2104 822 -2551 1868
-239 559 -306 1211 -185 1812 117 585 396 1117 807 1539 668 686 1564 1017
2517 930z"/>
<path d="M3906 6764 c-32 -10 -64 -31 -96 -63 -87 -87 -82 2 -74 -1298 l7
-1143 -1185 0 c-1318 0 -1251 3 -1329 -67 -135 -122 -107 -337 52 -417 l53
-26 1203 0 1203 0 0 -897 c1 -1244 2 -1280 30 -1337 73 -153 270 -194 395 -84
24 21 53 58 64 81 21 43 21 49 21 1140 l0 1097 1155 0 c1267 -1 1185 -5 1260
61 112 99 112 279 0 378 -77 68 7 63 -1259 67 -632 3 -1151 5 -1152 7 -1 1 -5
520 -9 1152 -7 1271 -4 1208 -72 1279 -72 74 -172 100 -267 70z"/>
</g>
</svg>
