<?xml version="1.0" standalone="no"?>
<!DOCTYPE svg PUBLIC "-//W3C//DTD SVG 20010904//EN"
 "http://www.w3.org/TR/2001/REC-SVG-20010904/DTD/svg10.dtd">
<svg version="1.0" xmlns="http://www.w3.org/2000/svg"
 width="800.000000pt" height="800.000000pt" viewBox="0 0 800.000000 800.000000"
 preserveAspectRatio="xMidYMid meet">

<g transform="translate(0.000000,800.000000) scale(0.100000,-0.100000)"
fill="#000000" stroke="none">
<path d="M923 7719 c-49 -14 -154 -90 -190 -137 -17 -23 -36 -64 -42 -92 -17
-81 -15 -6749 2 -6815 7 -28 36 -84 64 -125 39 -59 62 -82 104 -105 l54 -30
1810 -3 c995 -1 1805 2 1800 6 -6 5 -47 39 -92 76 -107 87 -232 221 -313 334
l-65 91 -1432 0 -1433 1 0 3150 0 3150 1473 0 1472 0 713 -713 712 -712 0
-958 0 -957 123 0 c111 0 290 -18 360 -35 l27 -7 0 1049 c0 943 -2 1054 -16
1099 -15 45 -88 120 -833 865 -807 807 -817 816 -886 845 l-70 29 -1655 2
c-1002 1 -1668 -2 -1687 -8z"/>
<path d="M2041 5295 c-33 -28 -65 -76 -76 -115 -4 -16 4 -9 22 20 17 25 45 62
62 83 38 43 35 48 -8 12z"/>
<path d="M2079 5223 c-59 -36 -76 -119 -39 -181 40 -66 -37 -63 1333 -60
l1242 3 31 22 c67 48 72 144 10 200 l-36 33 -1257 0 c-1145 -1 -1260 -2 -1284
-17z"/>
<path d="M4158 4126 c-1 -2 -336 -6 -743 -10 -1038 -9 -1303 -15 -1338 -33
-35 -18 -67 -69 -67 -108 0 -45 31 -96 70 -117 33 -18 54 -19 355 -14 176 3
550 8 830 11 1125 11 1358 17 1388 32 88 44 86 182 -3 228 -25 13 -69 15 -259
15 -126 -1 -231 -3 -233 -4z"/>
<path d="M5404 3675 c-704 -107 -1272 -617 -1457 -1305 -92 -343 -74 -738 49
-1068 206 -550 650 -954 1218 -1106 338 -91 737 -72 1063 50 620 232 1048 760
1149 1419 18 123 16 429 -5 540 -67 348 -205 639 -418 880 -274 309 -618 504
-1028 582 -113 21 -453 26 -571 8z m479 -510 c524 -92 940 -508 1032 -1032 19
-114 19 -323 -1 -438 -31 -179 -124 -396 -231 -539 -186 -249 -493 -438 -797
-491 -114 -19 -325 -19 -439 0 -394 69 -739 328 -920 690 -48 98 -93 234 -112
339 -19 114 -19 325 0 439 69 394 328 739 690 920 90 45 238 94 334 111 105
19 335 20 444 1z"/>
<path d="M5572 2806 l-37 -34 -3 -346 -3 -346 -359 0 c-370 0 -395 -2 -437
-42 -38 -36 -48 -82 -28 -135 32 -84 26 -83 453 -83 l372 0 0 -316 c0 -349 2
-363 62 -398 63 -38 139 -18 178 47 19 30 20 52 20 350 l0 317 341 0 341 0 39
39 c35 35 39 44 39 88 0 36 -6 58 -22 78 -41 53 -59 55 -413 55 l-325 0 0 330
c0 359 -1 366 -56 409 -19 15 -41 21 -75 21 -42 0 -55 -5 -87 -34z"/>
<path d="M2005 2927 c-61 -61 -53 -150 18 -201 28 -21 37 -21 967 -24 l938 -2
53 87 c29 49 65 107 81 131 l29 42 -1027 0 -1026 0 -33 -33z"/>
</g>
</svg>
