<?xml version="1.0" standalone="no"?>
<!DOCTYPE svg PUBLIC "-//W3C//DTD SVG 20010904//EN"
 "http://www.w3.org/TR/2001/REC-SVG-20010904/DTD/svg10.dtd">
<svg version="1.0" xmlns="http://www.w3.org/2000/svg"
 width="800.000000pt" height="800.000000pt" viewBox="0 0 800.000000 800.000000"
 preserveAspectRatio="xMidYMid meet">

<g transform="translate(0.000000,800.000000) scale(0.100000,-0.100000)"
fill="#000000" stroke="none">
<path d="M3843 7726 c-184 -45 -335 -203 -373 -390 -9 -44 -11 -184 -6 -545 3
-267 8 -673 11 -901 3 -228 8 -631 11 -894 l6 -479 -1370 7 c-994 4 -1384 3
-1423 -5 -177 -37 -343 -192 -388 -364 -15 -59 -20 -170 -10 -250 25 -199 196
-382 398 -424 39 -8 429 -9 1423 -5 l1370 7 -6 -479 c-3 -263 -8 -666 -11
-894 -3 -228 -8 -634 -11 -901 -5 -361 -3 -501 6 -545 39 -192 198 -353 388
-393 68 -14 216 -14 284 0 190 40 349 201 388 393 9 44 11 184 6 545 -3 267
-8 673 -11 901 -3 228 -8 631 -11 894 l-6 479 1370 -7 c994 -4 1384 -3 1423 5
177 37 343 192 388 364 15 59 20 170 10 250 -25 199 -196 382 -398 424 -39 8
-429 9 -1423 5 l-1370 -7 6 479 c3 263 8 666 11 894 3 228 8 634 11 901 5 361
3 501 -6 545 -39 192 -198 353 -388 393 -69 14 -233 13 -299 -3z"/>
</g>
</svg>
