<?xml version="1.0" standalone="no"?>
<!DOCTYPE svg PUBLIC "-//W3C//DTD SVG 20010904//EN"
 "http://www.w3.org/TR/2001/REC-SVG-20010904/DTD/svg10.dtd">
<svg version="1.0" xmlns="http://www.w3.org/2000/svg"
 width="800.000000pt" height="800.000000pt" viewBox="0 0 800.000000 800.000000"
 preserveAspectRatio="xMidYMid meet">

<g transform="translate(0.000000,800.000000) scale(0.100000,-0.100000)"
fill="#000000" stroke="none">
<path d="M605 6739 c-22 -3 -52 -11 -66 -17 -65 -27 -131 -111 -145 -186 -9
-51 -9 -4731 0 -4782 10 -50 47 -115 87 -148 66 -56 80 -58 389 -58 l285 -1
29 35 c25 29 42 83 112 344 509 1909 878 3275 892 3304 10 20 38 49 66 68 l48
32 2064 0 2064 0 16 25 c14 21 16 57 12 282 -3 235 -5 262 -24 303 -29 64 -70
95 -145 110 -49 10 -304 13 -1094 16 -566 1 -1038 3 -1047 3 -10 1 -157 139
-328 309 -227 224 -325 315 -365 336 l-54 29 -1378 1 c-758 0 -1396 -2 -1418
-5z"/>
<path d="M2662 4976 c-120 -45 -198 -113 -230 -199 -12 -32 -164 -587 -338
-1235 -173 -647 -346 -1293 -385 -1435 -38 -142 -70 -270 -71 -285 -1 -15 1
-55 6 -90 7 -52 15 -69 48 -107 22 -25 54 -53 72 -63 29 -16 187 -17 2516 -17
l2485 0 41 22 c22 12 46 28 52 36 23 27 137 436 433 1545 52 193 99 352 105
352 5 0 17 28 26 63 24 96 223 842 275 1027 39 141 45 175 41 231 -6 80 -39
131 -103 160 -38 18 -140 19 -2475 18 l-2435 0 -63 -23z m3595 -2078 c-3 -8
-6 -5 -6 6 -1 11 2 17 5 13 3 -3 4 -12 1 -19z"/>
</g>
</svg>
