<?xml version="1.0" standalone="no"?>
<!DOCTYPE svg PUBLIC "-//W3C//DTD SVG 20010904//EN"
 "http://www.w3.org/TR/2001/REC-SVG-20010904/DTD/svg10.dtd">
<svg version="1.0" xmlns="http://www.w3.org/2000/svg"
 width="800.000000pt" height="800.000000pt" viewBox="0 0 800.000000 800.000000"
 preserveAspectRatio="xMidYMid meet">

<g transform="translate(0.000000,800.000000) scale(0.100000,-0.100000)"
fill="#000000" stroke="none">
<path d="M605 6739 c-22 -3 -52 -11 -66 -17 -65 -27 -131 -111 -145 -186 -12
-69 -8 -4755 5 -4802 13 -49 58 -114 98 -141 74 -51 -132 -48 3183 -48 l3085
0 41 22 c22 12 46 28 52 36 23 27 137 436 433 1545 52 193 99 352 105 352 5 0
17 28 26 63 8 34 79 301 158 592 169 627 190 713 190 783 0 100 -59 180 -169
230 l-56 24 -542 1 -541 0 -4 351 c-3 332 -4 354 -24 396 -30 64 -70 95 -145
110 -49 10 -304 13 -1094 16 -566 1 -1038 3 -1047 3 -10 1 -157 139 -328 309
-227 224 -325 315 -365 336 l-54 29 -1378 1 c-758 0 -1396 -2 -1418 -5z m2840
-709 c371 -367 411 -402 483 -437 l67 -33 977 0 978 0 0 -179 0 -179 -77 -4
c-43 -2 -830 -4 -1749 -4 -1846 -2 -1694 4 -1761 -66 -18 -18 -44 -60 -58 -93
-15 -33 -31 -63 -36 -66 -14 -8 -208 -715 -325 -1178 -25 -101 -50 -196 -56
-210 -5 -14 -20 -66 -33 -116 -50 -191 -375 -1398 -377 -1400 -2 -2 -133 -5
-293 -6 l-290 -4 -2 2080 c-1 1144 0 2085 2 2091 2 8 324 11 1172 11 l1168 1
210 -208z m3725 -1347 c0 -16 -163 -629 -425 -1603 -30 -113 -100 -378 -156
-590 -56 -212 -105 -396 -110 -410 l-9 -25 -2227 3 c-1225 1 -2228 4 -2231 7
-4 3 58 237 318 1210 28 105 110 408 181 675 71 267 141 523 154 570 13 47 29
104 35 126 l10 41 2230 0 c1227 -1 2230 -3 2230 -4z"/>
</g>
</svg>
