<?xml version="1.0" standalone="no"?>
<!DOCTYPE svg PUBLIC "-//W3C//DTD SVG 20010904//EN"
 "http://www.w3.org/TR/2001/REC-SVG-20010904/DTD/svg10.dtd">
<svg version="1.0" xmlns="http://www.w3.org/2000/svg"
 width="800.000000pt" height="800.000000pt" viewBox="0 0 800.000000 800.000000"
 preserveAspectRatio="xMidYMid meet">

<g transform="translate(0.000000,800.000000) scale(0.100000,-0.100000)"
fill="#000000" stroke="none">
<path d="M2615 7429 c-22 -3 -52 -11 -66 -17 -67 -27 -132 -113 -145 -190 -4
-24 -7 -204 -8 -400 l-1 -357 -822 -1 c-868 -1 -849 0 -916 -47 -40 -27 -85
-92 -98 -141 -8 -30 -12 -774 -12 -2726 l0 -2685 22 -47 c27 -55 103 -130 157
-153 36 -16 246 -17 2724 -17 l2685 0 56 24 c73 33 122 77 149 136 l22 47 2
690 1 690 515 1 c510 2 516 2 562 24 59 27 103 76 136 149 l24 56 0 2385 c0
2141 -2 2389 -16 2421 -33 77 -110 140 -190 155 -47 8 -4724 12 -4781 3z
m4481 -2595 l1 -2091 -366 1 -366 1 -1 1731 c-1 952 -4 1751 -8 1776 -12 83
-81 165 -164 198 -26 10 -352 13 -1660 14 l-1627 1 -1 225 c-1 124 0 228 2
231 2 3 945 6 2096 5 l2093 -1 1 -2091z m-1241 -1280 l1 -2401 -2402 0 -2401
0 0 2396 c0 1318 1 2398 3 2402 1 3 1082 5 2401 5 l2398 -1 0 -2401z"/>
<path d="M3340 5329 c-55 -25 -95 -62 -123 -114 -22 -40 -22 -43 -19 -585 1
-300 5 -611 8 -692 l6 -148 -694 -2 -695 -3 -49 -30 c-70 -44 -107 -109 -112
-194 -2 -37 1 -85 7 -107 14 -51 71 -118 125 -147 l41 -22 685 0 685 0 -3
-385 c-1 -212 -5 -511 -8 -665 -7 -306 -3 -339 46 -410 81 -118 281 -137 392
-37 81 73 82 78 80 487 -1 198 -5 507 -8 686 l-7 327 689 -2 c654 -1 691 0
724 18 84 44 130 115 138 212 9 113 -46 211 -142 255 -39 17 -81 19 -725 19
l-684 0 7 338 c3 185 7 495 8 687 l1 350 -26 52 c-46 89 -124 133 -234 133
-47 0 -82 -7 -113 -21z"/>
</g>
</svg>
