<?xml version="1.0" standalone="no"?>
<!DOCTYPE svg PUBLIC "-//W3C//DTD SVG 20010904//EN"
 "http://www.w3.org/TR/2001/REC-SVG-20010904/DTD/svg10.dtd">
<svg version="1.0" xmlns="http://www.w3.org/2000/svg"
 width="800.000000pt" height="800.000000pt" viewBox="0 0 800.000000 800.000000"
 preserveAspectRatio="xMidYMid meet">

<g transform="translate(0.000000,800.000000) scale(0.100000,-0.100000)"
fill="#000000" stroke="none">
<path d="M6133 7445 c-82 -18 -145 -47 -210 -96 -30 -22 -194 -180 -365 -351
l-310 -311 708 -708 708 -708 45 43 c154 143 622 623 668 683 48 63 56 81 70
154 14 69 15 92 4 153 -6 39 -18 81 -26 93 -8 12 -15 29 -15 37 0 8 -35 68
-79 133 -69 106 -110 151 -362 403 -251 251 -298 293 -402 362 -65 43 -125 78
-133 78 -8 0 -25 6 -37 14 -27 17 -116 36 -165 35 -20 0 -65 -7 -99 -14z"/>
<path d="M3281 4723 c-1664 -1665 -1935 -1940 -1942 -1972 -11 -51 -36 -307
-54 -561 -13 -182 -74 -768 -91 -880 -5 -30 0 -41 32 -79 35 -41 40 -43 79
-38 157 22 706 79 880 92 116 8 285 22 378 31 l167 17 1950 1950 c1073 1072
1950 1952 1950 1956 0 3 -318 324 -707 712 l-708 707 -1934 -1935z"/>
</g>
</svg>
