<?xml version="1.0" standalone="no"?>
<!DOCTYPE svg PUBLIC "-//W3C//DTD SVG 20010904//EN"
 "http://www.w3.org/TR/2001/REC-SVG-20010904/DTD/svg10.dtd">
<svg version="1.0" xmlns="http://www.w3.org/2000/svg"
 width="800.000000pt" height="800.000000pt" viewBox="0 0 800.000000 800.000000"
 preserveAspectRatio="xMidYMid meet">

<g transform="translate(0.000000,800.000000) scale(0.100000,-0.100000)"
fill="#000000" stroke="none">
<path fill="red" d="M1182 7037 c-48 -15 -126 -89 -148 -139 -18 -42 -19 -136 -22 -2793
-2 -2133 0 -2760 9 -2795 17 -60 125 -170 185 -188 60 -17 5518 -17 5576 0 53
16 131 87 154 140 18 42 19 136 22 2793 2 2133 0 2760 -9 2795 -17 60 -125
170 -185 188 -56 16 -5532 16 -5582 -1z m2378 -2642 c250 -3 752 -7 1115 -10
968 -8 1116 -12 1178 -33 48 -17 53 -22 70 -67 16 -44 18 -77 15 -300 -3 -231
-5 -253 -24 -285 -13 -23 -35 -41 -65 -53 -41 -16 -95 -17 -869 -12 -454 3
-924 7 -1045 10 -121 3 -546 7 -945 10 -443 4 -746 10 -779 16 -113 23 -124
59 -119 384 4 258 11 293 62 325 48 31 -1 31 1406 15z"/>
</g>
</svg>
