<?xml version="1.0" standalone="no"?>
<!DOCTYPE svg PUBLIC "-//W3C//DTD SVG 20010904//EN"
 "http://www.w3.org/TR/2001/REC-SVG-20010904/DTD/svg10.dtd">
<svg version="1.0" xmlns="http://www.w3.org/2000/svg"
 width="800.000000pt" height="800.000000pt" viewBox="0 0 800.000000 800.000000"
 preserveAspectRatio="xMidYMid meet">

<g transform="translate(0.000000,800.000000) scale(0.100000,-0.100000)"
fill="#000000" stroke="none">
<path d="M1235 7039 c-22 -3 -52 -11 -66 -17 -65 -27 -131 -111 -145 -186 -4
-22 -7 -1268 -7 -2770 l0 -2731 22 -47 c27 -55 103 -130 157 -153 36 -16 251
-17 2799 -17 2481 0 2764 2 2796 16 77 33 140 110 155 190 4 22 7 1268 6 2770
0 2520 -1 2734 -17 2770 -23 54 -98 130 -153 156 l-47 23 -2730 1 c-1502 0
-2748 -2 -2770 -5z m3010 -2644 c138 -3 542 -7 899 -11 745 -7 745 -7 781 -79
18 -37 20 -60 20 -300 0 -240 -2 -263 -20 -300 -13 -27 -33 -47 -60 -60 -37
-19 -60 -20 -320 -20 -338 0 -2051 16 -2185 20 -52 2 -314 4 -581 5 -267 2
-512 6 -544 11 -143 19 -145 24 -145 363 0 316 8 352 84 376 30 9 1490 6 2071
-5z"/>
</g>
</svg>
